<svg id="Layer_1" version="1.1" viewBox="0 0 512 512" xml:space="preserve" xmlns="http://www.w3.org/2000/svg"><style>.st1{fill:#fff}</style><radialGradient cx="225.474" cy="222.805" gradientTransform="matrix(14.2175 0 0 14.2171 -3055.704 -2615.996)" gradientUnits="userSpaceOnUse" id="SVGID_1_" r="47.721"><stop offset=".097" stop-color="#ffd87a"/><stop offset=".143" stop-color="#fcce78"/><stop offset=".226" stop-color="#f5b471"/><stop offset=".338" stop-color="#eb8d65"/><stop offset=".449" stop-color="#e36058"/><stop offset=".679" stop-color="#cd3694"/><stop offset="1" stop-color="#6668b0"/></radialGradient><path d="M512 395.1c0 64.6-52.3 116.9-116.9 116.9H116.9C52.3 512 0 459.7 0 395.1V117C0 52.4 52.4 0 117 0h276.3C458.9 0 512 53.1 512 118.7v276.4z" fill="url(#SVGID_1_)"/><path class="st1" d="M327.2 70.6H184.8c-63.1 0-114.3 51.2-114.3 114.3v142.3c0 63.1 51.1 114.2 114.3 114.2h142.3c63.1 0 114.2-51.1 114.2-114.2V184.9c.1-63.2-51-114.3-114.1-114.3zm78.6 242.9c0 51-41.3 92.3-92.3 92.3h-115c-51 0-92.3-41.3-92.3-92.3v-115c0-51 41.3-92.3 92.3-92.3h115c51 0 92.3 41.4 92.3 92.3v115z"/><path class="st1" d="M261 159c-54 0-97.7 43.7-97.7 97.7 0 53.9 43.7 97.7 97.7 97.7 53.9 0 97.7-43.7 97.7-97.7-.1-54-43.8-97.7-97.7-97.7zm0 156.4c-32.5 0-58.8-26.3-58.8-58.8s26.3-58.8 58.8-58.8c32.4 0 58.8 26.3 58.8 58.8-.1 32.5-26.4 58.8-58.8 58.8zM376.7 157.5c0 13.7-11.1 24.8-24.8 24.8-13.7 0-24.8-11.1-24.8-24.8 0-13.7 11.1-24.9 24.8-24.9 13.7 0 24.8 11.1 24.8 24.9z"/></svg>